<svg width="76" height="76" fill="none" xmlns="http://www.w3.org/2000/svg"><path d="M69.849 4.559C69.265 4.372 55.363 0 38 0S6.735 4.372 6.151 4.559A2.227 2.227 0 004.61 6.863l1.973 23.818c1.601 19.22 13.108 36.427 30.422 45.084.287.143.65.235.996.235.344 0 .706-.09.996-.235C56.28 67.123 67.815 49.935 69.42 30.68l1.97-23.816a2.226 2.226 0 00-1.542-2.305zM40.227 70.018v-5.3a2.227 2.227 0 00-4.453 0v5.3c-8.524-5.08-15.33-12.586-19.664-21.391a16.666 16.666 0 004.564.497l.39 1.562a9.694 9.694 0 009.418 7.353h.037A9.69 9.69 0 0038 54.511a9.692 9.692 0 007.481 3.528h.037a9.694 9.694 0 009.418-7.353l.39-1.562a16.665 16.665 0 004.564-.498c-4.333 8.806-11.14 16.311-19.663 21.392zM25.08 48.395a16.625 16.625 0 006.576-3.847 6.712 6.712 0 004.099 4.196 5.26 5.26 0 01-5.237 4.842h-.037a5.247 5.247 0 01-5.098-3.98l-.303-1.211zm15.163.349a6.712 6.712 0 004.1-4.196 16.629 16.629 0 006.575 3.847l-.303 1.21a5.247 5.247 0 01-5.098 3.98h-.037a5.26 5.26 0 01-5.237-4.841zM64.981 30.31a50.883 50.883 0 01-2.65 12.475 12.106 12.106 0 01-6.519 1.894c-4.644 0-8.82-2.581-10.897-6.735l-.47-.94a2.226 2.226 0 00-4.218.995v4.453A2.23 2.23 0 0138 44.68a2.229 2.229 0 01-2.227-2.227V38a2.227 2.227 0 00-4.218-.996l-.47.94a12.117 12.117 0 01-10.898 6.736c-2.327 0-4.566-.654-6.519-1.894a50.875 50.875 0 01-2.649-12.473l-1.821-22C13.362 7.177 24.734 4.453 38 4.453c13.24 0 24.632 2.726 28.802 3.861l-1.821 21.997z" fill="#1AD7B8"/><path d="M35.206 27.608c-.19-.212-4.719-5.194-10.565-5.194-5.847 0-10.376 4.982-10.565 5.194a2.227 2.227 0 000 2.971c.19.212 4.718 5.194 10.565 5.194 5.846 0 10.375-4.982 10.565-5.194a2.227 2.227 0 000-2.97zM24.64 31.32c-2.186 0-4.223-1.193-5.577-2.226 1.355-1.034 3.392-2.227 5.577-2.227 2.184 0 4.22 1.193 5.576 2.227-1.355 1.034-3.392 2.226-5.576 2.226zm37.283-3.712c-.19-.212-4.718-5.194-10.565-5.194-5.846 0-10.375 4.982-10.565 5.194a2.227 2.227 0 000 2.971c.19.212 4.719 5.194 10.565 5.194 5.847 0 10.376-4.982 10.565-5.194a2.226 2.226 0 000-2.97zM51.36 31.32c-2.183 0-4.22-1.191-5.574-2.224 1.358-1.034 3.398-2.229 5.574-2.229 2.184 0 4.219 1.191 5.574 2.225-1.357 1.034-3.397 2.228-5.574 2.228zM32.513 16.768a11.1 11.1 0 00-7.872-3.26 11.101 11.101 0 00-7.872 3.26 2.227 2.227 0 003.148 3.15 6.65 6.65 0 014.724-1.957c1.793 0 3.473.707 4.723 1.956a2.226 2.226 0 103.149-3.149zm26.718 0a11.1 11.1 0 00-7.872-3.26 11.1 11.1 0 00-7.872 3.26 2.227 2.227 0 003.149 3.15 6.65 6.65 0 014.723-1.957 6.65 6.65 0 014.724 1.957 2.227 2.227 0 103.148-3.15z" fill="#1AD7B8"/></svg>