<svg width="85" height="85" fill="none" xmlns="http://www.w3.org/2000/svg"><g clip-path="url(#clip0_16_308)" fill="#1AD7B8"><path d="M30.049 49.97a2.49 2.49 0 00-2.49 2.49v4.981a2.49 2.49 0 004.98 0v-4.98a2.49 2.49 0 00-2.49-2.49zm24.902 9.962a2.49 2.49 0 002.49-2.49V52.46a2.49 2.49 0 00-4.98 0v4.98a2.49 2.49 0 002.49 2.49zm-9.795-42.334h27.227a2.49 2.49 0 000-4.98H45.156a2.49 2.49 0 000 4.98z"/><path d="M85 29.219V10.79C85 4.841 80.16 0 74.209 0H43.33c-5.95 0-10.79 4.84-10.79 10.791v19.258h-3.321c-9.102 0-16.736 6.403-18.636 14.941h-.456V29.62c2.898-1.027 4.98-3.795 4.98-7.042 0-4.12-3.35-7.47-7.47-7.47-4.12 0-7.471 3.35-7.471 7.47 0 3.247 2.082 6.015 4.98 7.043v15.741C2.162 46.342 0 49.152 0 52.461v9.96c0 4.12 3.351 7.472 7.47 7.472h3.077C12.383 78.513 20.056 85 29.218 85H55.78c9.161 0 16.835-6.486 18.673-15.107h3.075c4.12 0 7.471-3.352 7.471-7.471V52.46c0-4.12-3.351-7.47-7.47-7.47h-3.114a19.074 19.074 0 00-1.867-4.981h1.66C80.159 40.01 85 35.169 85 29.219zM37.52 10.79a5.817 5.817 0 015.81-5.81h30.88a5.817 5.817 0 015.81 5.81v18.428a5.817 5.817 0 01-5.81 5.81H44.99c-.386 0-.768.09-1.113.263l-6.358 3.179V10.79zM7.637 20.088a2.493 2.493 0 012.49 2.49 2.493 2.493 0 01-2.49 2.49 2.493 2.493 0 01-2.49-2.49 2.493 2.493 0 012.49-2.49zM4.98 62.422V52.46a2.493 2.493 0 012.49-2.49h2.657v14.941H7.471a2.493 2.493 0 01-2.49-2.49zm75.04-9.961v9.96a2.493 2.493 0 01-2.49 2.491h-2.657V49.971h2.656a2.493 2.493 0 012.49 2.49zm-10.127-3.32v16.767c0 7.781-6.33 14.111-14.112 14.111H29.22c-7.781 0-14.112-6.33-14.112-14.11V49.14c0-7.781 6.33-14.112 14.112-14.112h3.32V42.5c0 1.848 1.95 3.055 3.604 2.227l9.435-4.717h20.958a14.095 14.095 0 013.357 9.13z"/><path d="M45.156 27.559h27.227a2.49 2.49 0 000-4.98H45.156a2.49 2.49 0 000 4.98zM35.03 67.402a2.49 2.49 0 002.49 2.49h9.962a2.49 2.49 0 000-4.98H37.52a2.49 2.49 0 00-2.49 2.49z"/></g><defs><clipPath id="clip0_16_308"><path fill="#fff" d="M0 0h85v85H0z"/></clipPath></defs></svg>