<svg width="90" height="79" fill="none" xmlns="http://www.w3.org/2000/svg"><path d="M50.648 22.68H30.88a2.642 2.642 0 00-2.637 2.646 2.642 2.642 0 002.637 2.647h17.133v5.858a2.653 2.653 0 001.518 2.396 2.627 2.627 0 002.807-.364l16.945-14.174a2.645 2.645 0 00.949-2.034 2.65 2.65 0 00-.95-2.033L52.338 3.448a2.632 2.632 0 00-3.913.613 2.654 2.654 0 00-.412 1.42v5.858H30.879a2.642 2.642 0 00-2.637 2.647 2.642 2.642 0 002.637 2.647h19.77a2.642 2.642 0 002.636-2.647v-2.853l10.19 8.523-10.19 8.523v-2.853a2.641 2.641 0 00-2.637-2.647zM39.352 56.32h19.77a2.642 2.642 0 002.636-2.646 2.642 2.642 0 00-2.636-2.646H41.988V45.17a2.647 2.647 0 00-1.518-2.397 2.626 2.626 0 00-2.806.363L20.718 57.311a2.647 2.647 0 00-.948 2.033c0 .785.347 1.53.948 2.033l16.946 14.175a2.632 2.632 0 003.913-.614c.269-.424.411-.916.411-1.42V67.66h17.134a2.642 2.642 0 002.636-2.647 2.642 2.642 0 00-2.636-2.646h-19.77a2.642 2.642 0 00-2.637 2.646v2.855l-10.19-8.524 10.19-8.523v2.853a2.641 2.641 0 002.637 2.647zM19.792 8.107a8.213 8.213 0 00-5.859-2.436h-.187V2.647A2.642 2.642 0 0011.109 0a2.642 2.642 0 00-2.637 2.647V5.67H2.637A2.642 2.642 0 000 8.316a2.642 2.642 0 002.637 2.647h.187v17.386h-.187A2.642 2.642 0 000 30.996a2.642 2.642 0 002.637 2.646h5.836v3.023a2.642 2.642 0 002.636 2.647 2.642 2.642 0 002.637-2.647v-3.023h.188a8.215 8.215 0 005.858-2.436 8.278 8.278 0 002.426-5.88 8.27 8.27 0 00-2.223-5.67 8.274 8.274 0 002.223-5.67c0-2.221-.861-4.31-2.426-5.88zm-3.73 19.357a2.99 2.99 0 01-2.129.886H8.099v-6.047h5.835a2.983 2.983 0 012.13.886 3.005 3.005 0 01.882 2.138 3.01 3.01 0 01-.882 2.137zm.001-11.339a2.994 2.994 0 01-2.13.886H8.099v-6.047h5.835c.805 0 1.561.314 2.13.886a3.004 3.004 0 01.882 2.137 3.01 3.01 0 01-.882 2.138zm65.655 40.573h-4.24a2.984 2.984 0 01-2.13-.885 3.006 3.006 0 01-.881-2.138 3.02 3.02 0 013.011-3.023h2.253c1.485 0 2.882.581 3.933 1.636l.422.424a2.63 2.63 0 003.729 0 2.653 2.653 0 000-3.743l-.423-.425a10.736 10.736 0 00-5.864-3.034v-3.174a2.642 2.642 0 00-2.637-2.647 2.641 2.641 0 00-2.637 2.647v3.114c-3.99.597-7.06 4.057-7.06 8.225 0 2.221.861 4.31 2.426 5.88a8.215 8.215 0 005.858 2.436h4.24a3.02 3.02 0 013.009 3.027 3.009 3.009 0 01-.882 2.135 2.989 2.989 0 01-2.127.885h-3.07a6.95 6.95 0 01-4.954-2.06 2.628 2.628 0 00-3.728 0 2.652 2.652 0 000 3.743 12.172 12.172 0 006.288 3.377v3.256A2.641 2.641 0 0078.891 79a2.642 2.642 0 002.636-2.647v-3.022h.19a8.213 8.213 0 005.857-2.436A8.279 8.279 0 0090 65.011c0-4.584-3.716-8.314-8.282-8.314z" fill="#1AD7B8"/></svg>