<svg width="100" height="100" fill="none" xmlns="http://www.w3.org/2000/svg"><g clip-path="url(#clip0_22_1153)" fill="#1AD7B8"><path d="M82.363 75.72v.015l.02-.015h-.02zm.02 0l-.02.015h.02v-.014zm-64.766 0l.02.015v-.015h-.02zm64.675-60.095h-9.375v8.333h9.375v-8.333z"/><path d="M90.625 41.666h-8.333v-9.374h-9.375v-8.334h-9.375v8.334H36.458v-8.334h-9.375v8.334h-9.375v9.374H9.375V23.959H0v34.375h8.333v9.375h9.375v8.067c-2.372.033-4.622.03-6.995.062-.504.007-1.338.001-1.338.001v8.537h8.245c0-3.026.116-5.6.124-8.334h9.34v-8.333h45.833v8.334h9.34c.007 2.734.124 5.307.124 8.333h8.244v-8.537s-.834.006-1.337 0c-2.374-.032-4.623-.029-6.996-.063v-8.067h9.375v-9.375H100V23.958h-9.375v17.709zM36.459 50v5.208h-9.376v-8.333h9.376V50zm36.458 0v5.208h-9.375v-8.333h9.375V50z"/><path d="M17.708 15.625v8.333h9.375v-8.333h-9.375zm-.09 60.112h.02l-.02-.015v.015z"/></g><defs><clipPath id="clip0_22_1153"><path fill="#fff" d="M0 0h100v100H0z"/></clipPath></defs></svg>