<svg width="34" height="31" fill="none" xmlns="http://www.w3.org/2000/svg"><path d="M32.659 17.204l-1.732 1.96-1.731-1.96" stroke="#1AD7B8" stroke-width="1.961" stroke-miterlimit="10" stroke-linecap="round" stroke-linejoin="round"/><path d="M5.509 7.706a14.007 14.007 0 0111.393-5.845c7.746 0 14.025 6.279 14.025 14.025v3.279M1.146 14.563l1.732-1.96 1.731 1.96" stroke="#1AD7B8" stroke-width="1.961" stroke-miterlimit="10" stroke-linecap="round" stroke-linejoin="round"/><path d="M28.297 24.061a14.007 14.007 0 01-11.394 5.846c-7.746 0-14.025-6.28-14.025-14.025v-3.279" stroke="#1AD7B8" stroke-width="1.961" stroke-miterlimit="10" stroke-linecap="round" stroke-linejoin="round"/><path d="M19.845 15.882a2.942 2.942 0 11-5.884 0 2.942 2.942 0 015.884 0z" stroke="#1AD7B8" stroke-width="1.961" stroke-miterlimit="10" stroke-linecap="round" stroke-linejoin="round"/><path d="M23.767 15.882c0-.55-.065-1.084-.187-1.597l2.048-1.182-1.961-3.398-2.052 1.185a6.856 6.856 0 00-2.751-1.588v-2.37h-3.923v2.37a6.855 6.855 0 00-2.75 1.588l-2.053-1.185-1.961 3.398 2.048 1.182a6.882 6.882 0 00-.003 3.183l-2.045 1.18 1.961 3.398 2.044-1.18a6.858 6.858 0 002.76 1.596v2.357h3.922v-2.357a6.858 6.858 0 002.76-1.596l2.043 1.18 1.961-3.397-2.045-1.181c.123-.52.185-1.052.184-1.586z" stroke="#1AD7B8" stroke-width="1.961" stroke-miterlimit="10" stroke-linecap="round" stroke-linejoin="round"/></svg>