<svg width="32" height="32" fill="none" xmlns="http://www.w3.org/2000/svg"><path d="M20.476 28.705a13.828 13.828 0 008.479-8.549m0-8.93a13.827 13.827 0 00-8.593-8.589m-8.92 0a13.828 13.828 0 00-8.593 8.594m0 8.92a13.829 13.829 0 008.479 8.554m4.575-5.659c-4.056 0-7.356-3.3-7.356-7.355 0-4.056 3.3-7.355 7.355-7.355 4.056 0 7.356 3.3 7.356 7.355 0 4.056-3.3 7.355-7.355 7.355z" stroke="#1AD7B8" stroke-width="1.839" stroke-miterlimit="10" stroke-linecap="round" stroke-linejoin="round"/><path d="M20.707 29.666l-1.748-7.286a7.311 7.311 0 01-3.056.666 7.313 7.313 0 01-3.058-.666l-1.747 7.286a14.79 14.79 0 004.804.797c1.66 0 3.279-.273 4.805-.797zM8.547 15.691c0-1.047.22-2.043.617-2.945L1.888 11a14.8 14.8 0 00-.757 4.69c0 1.619.26 3.198.757 4.69l7.276-1.745a7.312 7.312 0 01-.617-2.945zm2.665-14.015l1.745 7.276a7.312 7.312 0 012.945-.616c1.047 0 2.043.22 2.946.616l1.745-7.276a14.8 14.8 0 00-4.69-.757 14.8 14.8 0 00-4.69.757zM23.258 15.69a7.312 7.312 0 01-.619 2.951l7.276 1.746a14.8 14.8 0 00.76-4.696c0-1.621-.26-3.202-.76-4.696l-7.276 1.746c.398.903.619 1.901.619 2.95z" stroke="#1AD7B8" stroke-width="1.839" stroke-miterlimit="10" stroke-linecap="round" stroke-linejoin="round"/></svg>