<svg width="34" height="34" fill="none" xmlns="http://www.w3.org/2000/svg"><g clip-path="url(#clip0_16_477)"><mask id="a" style="mask-type:luminance" maskUnits="userSpaceOnUse" x="0" y="0" width="34" height="34"><path d="M.165 0H33.64v33.474H.165V0z" fill="#fff"/></mask><g mask="url(#a)" stroke="#1AD7B8" stroke-width="1.961" stroke-miterlimit="10" stroke-linecap="round" stroke-linejoin="round"><path d="M24.683 22.687a1.967 1.967 0 01-1.962 1.961H20.76c1.079 0 1.961.883 1.961 1.962a1.967 1.967 0 01-1.961 1.96h-1.962c1.08 0 1.962.883 1.962 1.962a1.967 1.967 0 01-1.962 1.962h-5.04a14.22 14.22 0 01-5.021-.922 15.496 15.496 0 00-5.57-1.04h-2.02V18.764h3.961c.647 0 1.275-.235 1.765-.647l1.452-1.236a12.963 12.963 0 004.59-9.885 3.934 3.934 0 013.922 3.922v5.885h5.884c1.08 0 1.962.882 1.962 1.961a1.967 1.967 0 01-1.962 1.961c1.08 0 1.962.883 1.962 1.962zm-1.962-1.962H18.8m1.96 3.923h-1.961m8.436-23.091c1.149 1.15.528 3.633-1.387 5.548s-4.399 2.48-5.548 1.33c-1.149-1.148-.528-3.576 1.387-5.49 1.915-1.916 4.399-2.537 5.548-1.388zm.455 13.219c1.354 0 2.645-.549 3.533-1.436a4.888 4.888 0 001.436-3.468c0-1.354-.549-2.58-1.436-3.467m-10.398 6.41h1.499a7.097 7.097 0 006.347-3.923"/></g></g><defs><clipPath id="clip0_16_477"><path fill="#fff" transform="translate(.165)" d="M0 0h33.474v33.474H0z"/></clipPath></defs></svg>